<?xml version="1.0" standalone="no"?>
<!DOCTYPE svg PUBLIC "-//W3C//DTD SVG 20010904//EN"
 "http://www.w3.org/TR/2001/REC-SVG-20010904/DTD/svg10.dtd">
<svg version="1.0" xmlns="http://www.w3.org/2000/svg"
 width="500.000000pt" height="500.000000pt" viewBox="0 0 500.000000 500.000000"
 preserveAspectRatio="xMidYMid meet">

<g transform="translate(0.000000,500.000000) scale(0.100000,-0.100000)"
fill="#000000" stroke="none">
<path d="M0 2500 l0 -2500 2500 0 2500 0 0 2500 0 2500 -2500 0 -2500 0 0
-2500z m2860 2270 c284 -47 501 -121 735 -249 430 -235 764 -585 975 -1023
108 -225 168 -421 207 -668 24 -160 24 -500 0 -660 -95 -614 -421 -1158 -909
-1517 -721 -532 -1679 -600 -2461 -175 -642 348 -1069 960 -1184 1692 -24 160
-24 500 0 659 93 594 388 1105 852 1476 233 186 558 348 843 420 94 24 300 60
392 69 111 10 428 -3 550 -24z"/>
<path d="M3232 4205 c-250 -70 -439 -264 -492 -505 -14 -65 -12 -247 4 -305
65 -243 255 -431 495 -491 89 -22 272 -15 361 14 161 53 315 185 388 334 57
113 75 205 69 338 -8 177 -65 307 -192 435 -78 78 -168 135 -265 167 -85 28
-289 35 -368 13z"/>
<path d="M1338 3421 c-6 -99 -38 -170 -108 -235 -68 -63 -127 -88 -222 -94
l-78 -5 0 -47 0 -47 83 -10 c197 -24 314 -145 325 -334 l5 -80 51 3 51 3 5 80
c13 190 135 310 338 330 l72 7 0 48 0 47 -82 5 c-70 3 -93 9 -146 38 -116 62
-175 155 -180 288 l-4 82 -53 0 -52 0 -5 -79z"/>
<path d="M2216 3473 c-8 -16 -212 -461 -455 -991 -495 -1081 -480 -1049 -521
-1096 -64 -73 -191 -136 -272 -136 -36 0 -38 -2 -38 -30 l0 -30 335 0 335 0 0
30 c0 26 -4 30 -26 30 -75 0 -155 86 -162 175 -4 52 1 66 248 607 139 304 266
582 282 618 l29 64 275 -622 c302 -684 298 -674 250 -756 -25 -43 -88 -86
-125 -86 -17 0 -21 -6 -21 -30 l0 -30 773 2 772 3 3 26 c3 26 2 26 -75 32
-209 16 -417 138 -542 318 -26 38 -240 467 -496 997 l-450 931 -52 1 c-47 0
-54 -3 -67 -27z"/>
</g>
</svg>
